<?xml version="1.0" encoding="utf-8"?>
<!-- Generator: Adobe Illustrator 19.0.0, SVG Export Plug-In . SVG Version: 6.00 Build 0)  -->
<svg version="1.1" id="Laag_1" xmlns="http://www.w3.org/2000/svg" xmlns:xlink="http://www.w3.org/1999/xlink" x="0px" y="0px"
	 viewBox="0 0 1920 1080" style="enable-background:new 0 0 1920 1080;" xml:space="preserve">
<style type="text/css">
	.st0{fill:#FFFFFF;}
</style>
<g id="XMLID_2_">
	<path id="XMLID_263_" d="M963.9,594.7c-2.3,0-4.7,0-7,0c-0.3-0.1-0.7-0.3-1-0.3c-17.1-2.4-28.6-11.7-34.6-27.8
		c-1.1-3.1-1.5-6.5-2.3-9.7c0-2.2,0-4.4,0-6.6c0.2-1.3,0.4-2.6,0.7-4c2.9-15.1,11.5-25.6,25.7-31.3c3.7-1.5,7.9-2,11.8-2.9
		c2.2,0,4.4,0,6.6,0c1.2,0.2,2.4,0.5,3.6,0.7c16,3.2,26.7,12.4,32.1,27.8c1.1,3.1,1.5,6.5,2.2,9.8c0,2.2,0,4.4,0,6.6
		c-0.2,1.2-0.4,2.5-0.7,3.7c-3.4,16.2-12.9,27-28.6,32.3C969.7,593.7,966.7,594.1,963.9,594.7z M935.7,548.4
		c4.6,1.2,9.1,2.4,13.6,3.5c0.6,0.1,1.4-0.2,1.9-0.6c3.6-2.9,7.2-5.9,10.7-8.9c0.5-0.4,0.9-1.4,0.9-2c-0.5-4.2-1.1-8.3-1.8-12.5
		c-0.1-0.5-0.7-1.2-1.2-1.4c-3.6-1.2-7.3-2.5-11-3.5c-1-0.3-2.7-0.3-3.4,0.3c-3.8,3.2-7.4,6.6-10.9,10c-0.5,0.5-0.7,1.6-0.6,2.3
		C934.4,540,935,544.2,935.7,548.4z M935.6,550.1c-0.4,0.3-0.9,0.5-1.2,0.8c-2.2,2.9-4.5,5.8-6.6,8.8c-0.3,0.4-0.5,1.2-0.3,1.6
		c1.7,4.4,3.4,8.7,5.2,13c0.3,0.6,1,1.2,1.7,1.4c3.9,1.3,7.8,2.5,11.7,3.7c0.6,0.2,1.6-0.1,2-0.5c2.6-3.1,5.1-6.3,7.5-9.5
		c0.3-0.4,0.3-1.3,0.1-1.8c-1.7-4.3-3.4-8.5-5.1-12.7c-0.2-0.5-0.7-1.1-1.2-1.2C944.8,552.6,940.3,551.4,935.6,550.1z M989,543
		c-0.5-4.5-1-8.6-1.5-12.6c-0.1-0.6-0.4-1.3-0.9-1.7c-3.8-3.2-8-5.8-12.7-7.5c-0.5-0.2-1.1-0.3-1.5-0.1c-3.1,1.6-6.1,3.4-9.1,5.1
		c-0.4,0.2-0.7,0.9-0.7,1.3c0.6,4.3,1.2,8.6,1.9,12.8c0.1,0.6,0.6,1.4,1.1,1.7c4,2.6,8.1,5.1,12.1,7.6c0.4,0.2,1.2,0.3,1.6,0
		c2.9-1.7,5.9-3.5,8.7-5.4C988.5,543.9,988.8,543.3,989,543z M948.9,581.1c2,2.4,4,4.9,6,7.3c0.3,0.4,1,0.7,1.5,0.8
		c5.7,1.1,11.2,0.3,16.6-1.5c0.4-0.1,0.7-0.4,1-0.7c2.1-2.7,4.1-5.5,6.2-8.2c0.6-0.7,0.6-1.3,0-2.1c-2-2.3-3.8-4.8-5.8-7.1
		c-0.5-0.5-1.4-0.9-2.1-0.9c-4.5,0.2-9,0.6-13.5,1c-0.5,0-1.2,0.3-1.5,0.7C954.4,573.9,951.7,577.5,948.9,581.1z M989.9,545.2
		c-3.5,2.1-6.9,4.1-10.2,6.3c-0.5,0.3-0.8,1-1,1.6c-1.1,4.4-2.2,8.7-3.3,13.1c-0.1,0.6-0.2,1.5,0.1,1.9c2.2,2.8,4.6,5.5,6.9,8.4
		c3.1-1.7,6.2-3.3,9.2-5c0.4-0.2,0.8-0.7,1-1.2c2.5-4.9,3.9-10.1,4-15.7c0-0.7-0.2-1.6-0.6-2.2C994.1,550,991.9,547.6,989.9,545.2z
		 M948.1,515.6c-10.4,3.7-18,10.2-23,19.7c2.4-0.5,4.5-1,6.6-1.5c0.6-0.2,1.3-0.5,1.8-1c3.5-4.1,7.2-7.8,11.8-10.7
		c0.4-0.2,0.8-0.6,1-1C946.9,519.4,947.4,517.6,948.1,515.6z M920.8,554.9c0.5,10.1,4.2,18.5,11,25.5c0.2-1.6,0.5-3.3,0-4.7
		c-1.7-4.7-3.6-9.3-5.5-13.9c-0.3-0.7-0.6-1.5-1.1-2.1C924,558.1,922.5,556.7,920.8,554.9z M991.4,529.7c0.1-0.2,0.2-0.5,0.3-0.7
		c-5.7-7.1-12.9-11.8-22.2-14.2c1.2,1.5,2,2.7,2.9,3.7c0.7,0.8,1.5,1.6,2.5,1.9c4.4,1.7,8.3,4.3,12.1,7.1
		C988.2,528.4,989.9,528.9,991.4,529.7z M999.8,548.9c-0.2,0-0.4-0.1-0.6-0.1c-0.5,1.8-1.3,3.7-1.4,5.5c-0.1,5.5-1.5,10.6-3.7,15.6
		c-0.6,1.5-0.7,3.2-1,4.8C998.4,568.2,1000.5,559.1,999.8,548.9z M977.2,589.2c0-0.2,0-0.4-0.1-0.5c-2.2,0.4-4.3,0.6-6.4,1.1
		c-4.6,1-9.2,1.8-13.8,0.8c-2.4-0.5-4.3,0.4-6.9,1C959.6,593.8,968.6,593.1,977.2,589.2z"/>
	<path id="XMLID_258_" class="st0" d="M935.7,548.4c-0.6-4.3-1.3-8.5-1.8-12.7c-0.1-0.7,0.1-1.8,0.6-2.3c3.6-3.4,7.2-6.8,10.9-10
		c0.7-0.6,2.3-0.6,3.4-0.3c3.7,1,7.3,2.2,11,3.5c0.5,0.2,1.1,0.9,1.2,1.4c0.7,4.2,1.3,8.3,1.8,12.5c0.1,0.6-0.4,1.6-0.9,2
		c-3.5,3-7.1,6-10.7,8.9c-0.5,0.4-1.4,0.7-1.9,0.6C944.8,550.9,940.3,549.7,935.7,548.4z"/>
	<path id="XMLID_257_" class="st0" d="M935.6,550.1c4.7,1.3,9.3,2.4,13.8,3.7c0.5,0.1,1,0.7,1.2,1.2c1.8,4.2,3.5,8.4,5.1,12.7
		c0.2,0.5,0.2,1.4-0.1,1.8c-2.4,3.2-4.9,6.4-7.5,9.5c-0.4,0.4-1.4,0.7-2,0.5c-3.9-1.1-7.8-2.4-11.7-3.7c-0.7-0.2-1.4-0.8-1.7-1.4
		c-1.8-4.3-3.5-8.7-5.2-13c-0.2-0.4,0-1.2,0.3-1.6c2.2-3,4.4-5.9,6.6-8.8C934.7,550.6,935.2,550.4,935.6,550.1z"/>
	<path id="XMLID_256_" class="st0" d="M989,543c-0.2,0.3-0.5,1-1,1.3c-2.9,1.9-5.8,3.6-8.7,5.4c-0.4,0.2-1.2,0.2-1.6,0
		c-4.1-2.5-8.1-5-12.1-7.6c-0.5-0.3-1-1.1-1.1-1.7c-0.7-4.3-1.3-8.6-1.9-12.8c-0.1-0.4,0.3-1.1,0.7-1.3c3-1.8,6-3.5,9.1-5.1
		c0.4-0.2,1-0.1,1.5,0.1c4.7,1.7,8.9,4.3,12.7,7.5c0.5,0.4,0.8,1.1,0.9,1.7C988,534.4,988.4,538.5,989,543z"/>
	<path id="XMLID_255_" class="st0" d="M948.9,581.1c2.8-3.6,5.5-7.1,8.2-10.6c0.3-0.4,1-0.7,1.5-0.7c4.5-0.4,9-0.8,13.5-1
		c0.7,0,1.7,0.4,2.1,0.9c2,2.3,3.9,4.7,5.8,7.1c0.6,0.8,0.6,1.3,0,2.1c-2.1,2.7-4.1,5.5-6.2,8.2c-0.2,0.3-0.6,0.6-1,0.7
		c-5.4,1.8-10.9,2.6-16.6,1.5c-0.5-0.1-1.2-0.4-1.5-0.8C952.8,586,950.9,583.5,948.9,581.1z"/>
	<path id="XMLID_254_" class="st0" d="M989.9,545.2c2.1,2.4,4.2,4.7,6.2,7.2c0.4,0.5,0.6,1.4,0.6,2.2c-0.1,5.5-1.6,10.7-4,15.7
		c-0.2,0.5-0.6,0.9-1,1.2c-3,1.7-6.1,3.3-9.2,5c-2.4-2.8-4.7-5.5-6.9-8.4c-0.3-0.4-0.2-1.3-0.1-1.9c1-4.4,2.1-8.8,3.3-13.1
		c0.2-0.6,0.5-1.3,1-1.6C983,549.4,986.4,547.3,989.9,545.2z"/>
	<path id="XMLID_253_" class="st0" d="M948.1,515.6c-0.7,2-1.3,3.8-1.9,5.5c-0.2,0.4-0.6,0.8-1,1c-4.6,2.9-8.3,6.6-11.8,10.7
		c-0.4,0.5-1.1,0.8-1.8,1c-2.1,0.6-4.2,1-6.6,1.5C930.1,525.8,937.7,519.3,948.1,515.6z"/>
	<path id="XMLID_252_" class="st0" d="M920.8,554.9c1.7,1.8,3.1,3.3,4.4,4.8c0.5,0.6,0.8,1.3,1.1,2.1c1.9,4.6,3.8,9.2,5.5,13.9
		c0.5,1.4,0.2,3.1,0,4.7C925,573.3,921.3,565,920.8,554.9z"/>
	<path id="XMLID_251_" class="st0" d="M991.4,529.7c-1.5-0.7-3.1-1.2-4.4-2.2c-3.8-2.8-7.7-5.4-12.1-7.1c-0.9-0.4-1.8-1.2-2.5-1.9
		c-0.9-1-1.7-2.2-2.9-3.7c9.3,2.4,16.5,7.1,22.2,14.2C991.6,529.2,991.5,529.4,991.4,529.7z"/>
	<path id="XMLID_250_" class="st0" d="M999.8,548.9c0.7,10.1-1.4,19.3-6.6,25.7c0.3-1.6,0.4-3.3,1-4.8c2.1-5,3.5-10.1,3.7-15.6
		c0-1.9,0.9-3.7,1.4-5.5C999.4,548.8,999.6,548.9,999.8,548.9z"/>
	<path id="XMLID_249_" class="st0" d="M977.2,589.2c-8.6,4-17.5,4.7-27.2,2.3c2.6-0.5,4.5-1.5,6.9-1c4.6,1,9.2,0.2,13.8-0.8
		c2.1-0.5,4.3-0.8,6.4-1.1C977.1,588.8,977.1,589,977.2,589.2z"/>
</g>
</svg>
