<?xml version="1.0" encoding="utf-8"?>
<!-- Generator: Adobe Illustrator 19.0.0, SVG Export Plug-In . SVG Version: 6.00 Build 0)  -->
<svg version="1.1" id="Laag_1" xmlns="http://www.w3.org/2000/svg" xmlns:xlink="http://www.w3.org/1999/xlink" x="0px" y="0px"
	 viewBox="0 0 1920 1080" style="enable-background:new 0 0 1920 1080;" xml:space="preserve">
<style type="text/css">
	.st0{fill:#519733;}
	.st1{fill:#5CA531;}
	.st2{fill:#A3195B;}
	.st3{fill:#575756;}
	.st4{fill:#706F6F;}
	.st5{fill:#878787;}
	.st6{fill:#E71D73;}
	.st7{fill:#FFFFFF;}
</style>
<rect id="XMLID_1_" y="953.3" class="st0" width="128" height="128"/>
<rect id="XMLID_5_" x="128" y="953.3" class="st1" width="128" height="128"/>
<rect id="XMLID_7_" x="256" y="953.3" class="st0" width="128" height="128"/>
<rect id="XMLID_3_" x="384" y="953.3" class="st1" width="128" height="128"/>
<rect id="XMLID_23_" x="512" y="953.3" class="st0" width="128" height="128"/>
<rect id="XMLID_20_" x="640" y="953.3" class="st1" width="128" height="128"/>
<rect id="XMLID_16_" x="768" y="953.3" class="st0" width="128" height="128"/>
<rect id="XMLID_10_" x="896" y="953.3" class="st1" width="128" height="128"/>
<rect id="XMLID_41_" x="1024" y="953.3" class="st0" width="128" height="128"/>
<rect id="XMLID_38_" x="1152" y="953.3" class="st1" width="128" height="128"/>
<rect id="XMLID_35_" x="1280" y="953.3" class="st0" width="128" height="128"/>
<rect id="XMLID_32_" x="1408" y="953.3" class="st1" width="128" height="128"/>
<rect id="XMLID_29_" x="1536" y="953.3" class="st0" width="128" height="128"/>
<rect id="XMLID_4_" x="1792" y="953.3" class="st0" width="128" height="128"/>
<rect id="XMLID_26_" x="1664" y="953.3" class="st1" width="128" height="128"/>
<rect id="XMLID_86_" y="825.3" class="st1" width="128" height="128"/>
<rect id="XMLID_83_" x="128" y="825.3" class="st0" width="128" height="128"/>
<rect id="XMLID_80_" x="256" y="825.3" class="st1" width="128" height="128"/>
<rect id="XMLID_77_" x="384" y="825.3" class="st0" width="128" height="128"/>
<rect id="XMLID_74_" x="512" y="825.3" class="st1" width="128" height="128"/>
<rect id="XMLID_71_" x="640" y="825.3" class="st0" width="128" height="128"/>
<rect id="XMLID_68_" x="768" y="825.3" class="st1" width="128" height="128"/>
<rect id="XMLID_65_" x="896" y="825.3" class="st0" width="128" height="128"/>
<rect id="XMLID_62_" x="1024" y="825.3" class="st1" width="128" height="128"/>
<rect id="XMLID_59_" x="1152" y="825.3" class="st0" width="128" height="128"/>
<rect id="XMLID_56_" x="1280" y="825.3" class="st1" width="128" height="128"/>
<rect id="XMLID_44_" x="1408" y="825.3" class="st0" width="128" height="128"/>
<rect id="XMLID_13_" x="1664" y="825.3" class="st0" width="128" height="128"/>
<rect id="XMLID_9_" x="1536" y="825.3" class="st1" width="128" height="128"/>
<rect id="XMLID_89_" x="1792" y="825.3" class="st1" width="128" height="128"/>
<rect id="XMLID_179_" y="697.3" class="st0" width="128" height="128"/>
<rect id="XMLID_176_" x="128" y="697.3" class="st1" width="128" height="128"/>
<rect id="XMLID_173_" x="256" y="697.3" class="st0" width="128" height="128"/>
<rect id="XMLID_170_" x="384" y="697.3" class="st1" width="128" height="128"/>
<rect id="XMLID_167_" x="512" y="697.3" class="st0" width="128" height="128"/>
<rect id="XMLID_164_" x="640" y="697.3" class="st1" width="128" height="128"/>
<rect id="XMLID_161_" x="768" y="697.3" class="st0" width="128" height="128"/>
<rect id="XMLID_158_" x="896" y="697.3" class="st1" width="128" height="128"/>
<rect id="XMLID_155_" x="1024" y="697.3" class="st0" width="128" height="128"/>
<rect id="XMLID_152_" x="1152" y="697.3" class="st1" width="128" height="128"/>
<rect id="XMLID_149_" x="1280" y="697.3" class="st0" width="128" height="128"/>
<rect id="XMLID_146_" x="1408" y="697.3" class="st1" width="128" height="128"/>
<rect id="XMLID_143_" x="1536" y="697.3" class="st0" width="128" height="128"/>
<rect id="XMLID_140_" x="1792" y="697.3" class="st0" width="128" height="128"/>
<rect id="XMLID_137_" x="1664" y="697.3" class="st1" width="128" height="128"/>
<rect id="XMLID_134_" y="569.3" class="st1" width="128" height="128"/>
<rect id="XMLID_131_" x="128" y="569.3" class="st0" width="128" height="128"/>
<rect id="XMLID_128_" x="256" y="569.3" class="st1" width="128" height="128"/>
<rect id="XMLID_125_" x="384" y="569.3" class="st0" width="128" height="128"/>
<rect id="XMLID_122_" x="512" y="569.3" class="st1" width="128" height="128"/>
<rect id="XMLID_119_" x="640" y="569.3" class="st0" width="128" height="128"/>
<rect id="XMLID_116_" x="768" y="569.3" class="st1" width="128" height="128"/>
<rect id="XMLID_113_" x="896" y="569.3" class="st0" width="128" height="128"/>
<rect id="XMLID_110_" x="1024" y="569.3" class="st1" width="128" height="128"/>
<rect id="XMLID_107_" x="1152" y="569.3" class="st0" width="128" height="128"/>
<rect id="XMLID_104_" x="1280" y="569.3" class="st1" width="128" height="128"/>
<rect id="XMLID_101_" x="1408" y="569.3" class="st0" width="128" height="128"/>
<rect id="XMLID_98_" x="1664" y="569.3" class="st0" width="128" height="128"/>
<rect id="XMLID_95_" x="1536" y="569.3" class="st1" width="128" height="128"/>
<rect id="XMLID_92_" x="1792" y="569.3" class="st1" width="128" height="128"/>
<rect id="XMLID_182_" x="0" y="453.4" class="st2" width="960" height="115.8"/>
<rect id="XMLID_188_" x="0" y="302.3" class="st3" width="1920" height="151.1"/>
<rect id="XMLID_193_" x="0" y="151.1" class="st4" width="1920" height="151.1"/>
<rect id="XMLID_194_" x="0" y="0" class="st5" width="1920" height="151.1"/>
<rect id="XMLID_184_" x="960" y="453.4" class="st6" width="960" height="115.8"/>
<rect id="XMLID_190_" x="950.2" y="-40.6" transform="matrix(2.655245e-003 1 -1 2.655245e-003 1745.7695 -170.7285)" class="st7" width="16.5" height="1660.9"/>
<rect id="XMLID_191_" x="127.7" y="571.5" transform="matrix(-1 2.655242e-003 -2.655242e-003 -1 273.6783 1371.4583)" class="st7" width="16.5" height="228.7"/>
<rect id="XMLID_192_" x="1772.2" y="567.9" transform="matrix(-1 2.655242e-003 -2.655242e-003 -1 3562.6135 1359.7584)" class="st7" width="16.5" height="228.7"/>
<circle id="XMLID_183_" class="st7" cx="960" cy="889.3" r="30"/>
</svg>
