<?xml version="1.0" encoding="utf-8"?>
<!-- Generator: Adobe Illustrator 19.0.0, SVG Export Plug-In . SVG Version: 6.00 Build 0)  -->
<svg version="1.1" id="Laag_1" xmlns="http://www.w3.org/2000/svg" xmlns:xlink="http://www.w3.org/1999/xlink" x="0px" y="0px"
	 viewBox="0 0 1920 1080" style="enable-background:new 0 0 1920 1080;" xml:space="preserve">
<style type="text/css">
	.st0{fill:#E62532;}
	.st1{fill:#F3F4F6;}
	.st2{fill:#432918;}
	.st3{fill:#E30613;stroke:#000000;stroke-miterlimit:10;}
</style>
<g id="XMLID_7_">
	<path id="XMLID_32_" d="M872.1,405.3c-1.1,0.9-2.2,1.8-3.5,2.5c-5,3.1-10.1,6.2-15.1,9.2c-1.1,0.6-2.1,1.3-3.1,2
		c-1.9,1.3-2,3.4-0.1,4.8c1.8,1.4,3.9,1.5,5.7,0.2c3.9-2.9,8.4-4.8,12.7-7c1.1-0.6,2.1-1.4,3-2.1c1-0.8,1.9-1.8,2.9-2.6
		c0.5-0.5,1.2-0.9,2-0.6c-0.3,1.2-0.7,2.3-1.6,3.1c-1.4,1.4-2.8,2.8-4.4,3.9c-3.1,2.2-6.2,4.3-9.3,6.5c-0.7,0.5-1.3,1.1-1.8,1.7
		c-1,1.2-1.2,2.6-0.5,3.9c0.7,1.3,2,2,3.4,1.8c1.1-0.1,2.2-0.4,3.1-1c3.2-1.8,6.3-3.7,9.3-5.7c2.7-1.8,4.9-4.1,7.1-6.4
		c3.9-3.9,8.1-7.4,12.8-10.4c0.5-0.3,0.9-0.3,1.3,0c0.9,0.6,1.3,1.5,1.1,2.6c-0.2,0.9-0.4,1.9-0.8,2.7c-1.7,3.2-1.4,6.6-0.7,9.9
		c0.5,2.2,1.5,4.2,3.2,5.7c1,0.9,2.1,1.5,3.5,1.2c1.6-0.4,2.2-1.6,2.3-3c0.2-1.5,0.2-3.1,0-4.5c-0.4-3.4,0.2-6.6,1.3-9.7
		c0.8-2.1,1.9-4,3.2-5.9c0.5-0.7,0.7-1.7,0.8-2.5c0.1-1.9,0.1-3.9,0.1-5.8c0.1-2.2,0-4.5,0.3-6.7c0.4-3.1,2.1-5.6,4.2-7.8
		c2.5-2.6,5.1-5.1,7.6-7.6c0.8-0.8,1.4-1.7,2.1-2.6c0.9-1.2,1-2.6,0.6-4.1c-0.6-2.4-1.8-4.5-3.3-6.4c-2.5-3.1-5.4-5.7-9-7.4
		c-0.7-0.3-1.5-0.6-2.3-0.7c-1.7-0.4-3.2,0-4.3,1.3c-2.2,2.7-4.5,5.3-6.6,8c-1.9,2.4-3.8,4.7-6.2,6.5c-0.3,0.2-0.6,0.4-0.9,0.5
		c-3.5,1.5-7,2.9-10.4,4.4c-3,1.4-5.4,3.5-8,5.5c-1.7,1.3-3.4,2.7-5.2,3.9c-0.8,0.5-1.8,0.9-2.8,1.1c-5.7,1.3-11.2,3-16.5,5.3
		c-1,0.4-1.5,1.4-1.6,2.4c-0.1,1,0.4,1.7,1.3,2.2c1.9,1.1,4,1.1,5.8-0.1c3.9-2.6,8.1-3.5,12.7-3.4c0.7,0,1.5-0.1,1.9,0.7
		c0.4,0.8-0.2,1.4-0.7,1.9c-1.3,1.2-2.6,2.4-4,3.3c-3.5,2.3-7.1,4.4-10.7,6.6c-1.4,0.8-2.9,1.5-4.3,2.4c-0.7,0.4-1.4,0.9-1.9,1.5
		c-1.1,1.3-1,3,0,4.2c1,1.2,2.5,1.6,4.1,0.8c2.7-1.3,5.3-2.7,7.9-4c3.6-1.9,7.2-3.8,10.8-5.7c0.4-0.2,0.9-0.4,1.3-0.6
		C872,405.1,872,405.2,872.1,405.3z"/>
</g>
<g id="XMLID_10_">
	<path id="XMLID_11_" d="M1207.4,397.6c1.1,0.9,2.2,1.8,3.5,2.5c5,3.1,10.1,6.2,15.1,9.2c1.1,0.6,2.1,1.3,3.1,2
		c1.9,1.3,2,3.4,0.1,4.8c-1.8,1.4-3.9,1.5-5.7,0.2c-3.9-2.9-8.4-4.8-12.7-7c-1.1-0.6-2.1-1.4-3-2.1c-1-0.8-1.9-1.8-2.9-2.6
		c-0.5-0.5-1.2-0.9-2-0.6c0.3,1.2,0.7,2.3,1.6,3.1c1.4,1.4,2.8,2.8,4.4,3.9c3.1,2.2,6.2,4.3,9.3,6.5c0.7,0.5,1.3,1.1,1.8,1.7
		c1,1.2,1.2,2.6,0.5,3.9c-0.7,1.3-2,2-3.4,1.8c-1.1-0.1-2.2-0.4-3.1-1c-3.2-1.8-6.3-3.7-9.3-5.7c-2.7-1.8-4.9-4.1-7.1-6.4
		c-3.9-3.9-8.1-7.4-12.8-10.4c-0.5-0.3-0.9-0.3-1.3,0c-0.9,0.6-1.3,1.5-1.1,2.6c0.2,0.9,0.4,1.9,0.8,2.7c1.7,3.2,1.4,6.6,0.7,9.9
		c-0.5,2.2-1.5,4.2-3.2,5.7c-1,0.9-2.1,1.5-3.5,1.2c-1.6-0.4-2.2-1.6-2.3-3c-0.2-1.5-0.2-3.1,0-4.5c0.4-3.4-0.2-6.6-1.3-9.7
		c-0.8-2.1-1.9-4-3.2-5.9c-0.5-0.7-0.7-1.7-0.8-2.5c-0.1-1.9-0.1-3.9-0.1-5.8c-0.1-2.2,0-4.5-0.3-6.7c-0.4-3.1-2.1-5.6-4.2-7.8
		c-2.5-2.6-5.1-5.1-7.6-7.6c-0.8-0.8-1.4-1.7-2.1-2.6c-0.9-1.2-1-2.6-0.6-4.1c0.6-2.4,1.8-4.5,3.3-6.4c2.5-3.1,5.4-5.7,9-7.4
		c0.7-0.3,1.5-0.6,2.3-0.7c1.7-0.4,3.2,0,4.3,1.3c2.2,2.7,4.5,5.3,6.6,8c1.9,2.4,3.8,4.7,6.2,6.5c0.3,0.2,0.6,0.4,0.9,0.5
		c3.5,1.5,7,2.9,10.4,4.4c3,1.4,5.4,3.5,8,5.5c1.7,1.3,3.4,2.7,5.2,3.9c0.8,0.5,1.8,0.9,2.8,1.1c5.7,1.3,11.2,3,16.5,5.3
		c1,0.4,1.5,1.4,1.6,2.4c0.1,1-0.4,1.7-1.3,2.2c-1.9,1.1-4,1.1-5.8-0.1c-3.9-2.6-8.1-3.5-12.7-3.4c-0.7,0-1.5-0.1-1.9,0.7
		c-0.4,0.8,0.2,1.4,0.7,1.9c1.3,1.2,2.6,2.4,4,3.3c3.5,2.3,7.1,4.4,10.7,6.6c1.4,0.8,2.9,1.5,4.3,2.4c0.7,0.4,1.4,0.9,1.9,1.5
		c1.1,1.3,1,3,0,4.2c-1,1.2-2.5,1.6-4.1,0.8c-2.7-1.3-5.3-2.7-7.9-4c-3.6-1.9-7.2-3.8-10.8-5.7c-0.4-0.2-0.9-0.4-1.3-0.6
		C1207.4,397.5,1207.4,397.5,1207.4,397.6z"/>
</g>
<path id="XMLID_5_" class="st0" d="M930.3,381l49.9-56.5c4.4-4.9,3.9-12.6-1-16.9l-10.8-9.5c-4.9-4.4-12.6-3.9-16.9,1l-49.9,56.5
	c-4.4,4.9-3.9,12.6,1,16.9l10.8,9.5C918.3,386.4,926,385.9,930.3,381z"/>
<path id="XMLID_8_" class="st1" d="M1178,348l-56.5-49.9c-4.9-4.4-12.6-3.9-16.9,1l-9.5,10.8c-4.4,4.9-3.9,12.6,1,16.9l56.5,49.9
	c4.9,4.4,12.6,3.9,16.9-1l9.5-10.8C1183.4,360,1182.9,352.4,1178,348z"/>
<path id="XMLID_2_" class="st0" d="M1036.7,571c0,0,43.6-22,53.5-34.5c14-17.6,28.7-62.1,30.5-84.5c2.5-31.6-9.5-110.9-12.4-124.6
	c-2.2-10.3-25.8-57-41.6-69.4c-6.3-5-30-11.2-30-11.2V571z"/>
<path id="XMLID_4_" class="st1" d="M1036.7,571c0,0-43.6-22-53.5-34.5c-14-17.6-28.7-62.1-30.5-84.5c-2.5-31.6,9.5-110.9,12.4-124.6
	c2.2-10.3,25.8-57,41.6-69.4c6.3-5,30-11.2,30-11.2V571z"/>
<ellipse id="XMLID_3_" class="st2" cx="1086.9" cy="565.1" rx="50.2" ry="17"/>
<ellipse id="XMLID_6_" class="st2" cx="986.6" cy="568.3" rx="50.2" ry="17"/>
<path id="XMLID_1_" class="st3" d="M628.5,330"/>
</svg>
